<?xml version="1.0" encoding="UTF-8"?> <svg xmlns="http://www.w3.org/2000/svg" id="Laag_1" data-name="Laag 1" width="146.46" height="111.87" viewBox="0 0 146.46 111.87"><defs><style> .cls-1 { fill: #fff; } .cls-2 { fill: #0d0802; } .cls-3 { fill: #d90e29; } </style></defs><polygon class="cls-2" points="4.3 88.14 4.3 96.04 15.34 96.04 15.34 99.92 4.3 99.92 4.3 111.32 0 111.32 0 84.1 18.25 84.1 18.25 88.14 4.3 88.14"></polygon><g><path class="cls-1" d="M72.29,80.19l-.84-.57c-.71-.48-17.37-11.88-18.97-26.78l-.04-.37c-.06-.71-.09-1.31-.09-1.88,0-11.04,8.95-20.03,19.95-20.03s19.95,8.99,19.95,20.03c0,.57-.03,1.17-.09,1.89l-.04,.37c-1.6,14.89-18.26,26.29-18.97,26.77l-.84,.57Z"></path><polygon class="cls-2" points="43.13 .55 43.13 4.59 34.34 4.59 34.34 27.77 30.08 27.77 30.08 4.59 21.32 4.59 21.32 .55 43.13 .55"></polygon><polygon class="cls-2" points="66.14 23.73 66.14 27.77 47.28 27.77 47.28 .55 65.91 .55 65.91 4.59 51.58 4.59 51.58 11.67 63 11.67 63 15.48 51.58 15.48 51.58 23.73 66.14 23.73"></polygon><path class="cls-2" d="M90.89,8.32c-1.62-2.53-4.69-4.08-7.94-4.08-5.62,0-9.65,4.04-9.65,9.92s4.18,9.88,9.65,9.88c3.64,0,6.9-1.94,8.44-4.82l4.3,1.17c-2.29,4.82-7.09,7.94-12.75,7.94-7.79,0-14.06-5.95-14.06-14.16S75.17,0,82.95,0c5.31,0,9.88,2.84,12.32,7.16l-4.38,1.17Z"></path><polygon class="cls-2" points="121.53 .55 121.53 27.77 117.23 27.77 117.23 15.83 103.98 15.83 103.98 27.77 99.69 27.77 99.69 .55 103.98 .55 103.98 11.82 117.23 11.82 117.23 .55 121.53 .55"></polygon><polygon class="cls-2" points="35.08 46.37 35.08 54.26 46.11 54.26 46.11 58.15 35.08 58.15 35.08 69.55 30.77 69.55 30.77 42.32 49.02 42.32 49.02 46.37 35.08 46.37"></polygon><path class="cls-2" d="M105.77,56.01c3.68,0,5.46-2.18,5.46-4.86s-1.94-4.78-5.46-4.78h-5.07v9.65h5.07Zm6.08,13.54l-5.73-9.76c-.27,.04-.54,.04-.85,.04h-4.57v9.72h-4.3v-27.23h8.87c6.51,0,10.42,3.46,10.42,8.83,0,3.81-1.97,6.57-5.42,7.86l6.43,10.54h-4.84Z"></path><path class="cls-2" d="M45.17,84.1v15.67c0,7.86-4.3,12.1-11.43,12.1s-11.39-4.24-11.39-12.1v-15.67h4.3v15.63c0,5.48,2.4,8.13,7.09,8.13s7.17-2.64,7.17-8.13v-15.63h4.26Z"></path><polygon class="cls-2" points="70.42 84.1 70.42 88.14 61.63 88.14 61.63 111.32 57.37 111.32 57.37 88.14 48.61 88.14 48.61 84.1 70.42 84.1"></polygon><g><path class="cls-2" d="M96.72,84.1v15.67c0,7.86-4.3,12.1-11.43,12.1s-11.39-4.24-11.39-12.1v-15.67h4.3v15.63c0,5.48,2.4,8.13,7.09,8.13s7.17-2.64,7.17-8.13v-15.63h4.26Z"></path><path class="cls-2" d="M111.75,97.79c3.68,0,5.46-2.18,5.46-4.86s-1.94-4.78-5.46-4.78h-5.07v9.65h5.07Zm6.08,13.54l-5.73-9.76c-.27,.04-.54,.04-.85,.04h-4.57v9.72h-4.3v-27.23h8.87c6.51,0,10.42,3.46,10.42,8.83,0,3.81-1.98,6.57-5.42,7.86l6.43,10.54h-4.84Z"></path></g><polygon class="cls-2" points="146.46 107.28 146.46 111.32 127.59 111.32 127.59 84.1 146.23 84.1 146.23 88.14 131.89 88.14 131.89 95.22 143.32 95.22 143.32 99.03 131.89 99.03 131.89 107.28 146.46 107.28"></polygon><path class="cls-2" d="M72.29,33.6c-9.33,0-16.92,7.62-16.92,16.99,0,.48,.03,1,.08,1.61l.03,.31c1.26,11.69,13.46,21.49,16.81,23.97,3.35-2.49,15.56-12.3,16.81-23.97l.04-.33c.05-.61,.08-1.12,.08-1.6,0-9.37-7.59-16.99-16.93-16.99m0,46.59l-.84-.57c-.71-.48-17.37-11.88-18.97-26.78l-.04-.37c-.06-.71-.09-1.31-.09-1.88,0-11.04,8.95-20.03,19.95-20.03s19.95,8.99,19.95,20.03c0,.57-.03,1.17-.09,1.89l-.04,.37c-1.6,14.89-18.26,26.29-18.97,26.77l-.84,.57Z"></path><path class="cls-3" d="M72.29,63.5c-7.1,0-12.85-5.78-12.85-12.91s5.75-12.91,12.85-12.91,12.85,5.78,12.85,12.91-5.76,12.91-12.85,12.91"></path><path class="cls-2" d="M72.29,39.2c-6.25,0-11.34,5.11-11.34,11.39s5.09,11.39,11.34,11.39,11.34-5.11,11.34-11.39-5.09-11.39-11.34-11.39m0,25.81c-7.92,0-14.37-6.47-14.37-14.43s6.44-14.43,14.37-14.43,14.37,6.47,14.37,14.43-6.45,14.43-14.37,14.43"></path><path class="cls-1" d="M72.29,54.46c-2.13,0-3.85-1.73-3.85-3.87s1.73-3.87,3.85-3.87,3.86,1.73,3.86,3.87-1.73,3.87-3.86,3.87"></path></g></svg> 